<svg width="320" height="367" viewBox="0 0 320 367" fill="none" xmlns="http://www.w3.org/2000/svg">
<path d="M260.5 338C251.96 232.543 190 69 -69 52C-188.238 44.1736 -117.192 -30.8466 -32.9328 -14.3533C-28.2162 -13.4301 192.896 -14.2879 339.186 -14.3499C344.564 -14.3521 349.84 -14.3533 355 -14.3533V347L296 365.5L260.5 338Z" fill="#D9D9D9"/>
<path d="M349.5 -40C345.837 -31.1745 342.404 -22.6331 339.186 -14.3499M295.5 364C295.5 209.49 276.966 145.84 339.186 -14.3499M339.186 -14.3499C192.896 -14.2879 -28.2162 -13.4301 -32.9328 -14.3533C-117.192 -30.8466 -188.238 44.1736 -69 52C190 69 251.96 232.543 260.5 338L296 365.5L355 347V-14.3533C349.84 -14.3533 344.564 -14.3521 339.186 -14.3499Z" stroke="black"/>
</svg>
